<svg width="1920" height="1039" viewBox="0 0 1920 1039" fill="none" xmlns="http://www.w3.org/2000/svg">
<path fill-rule="evenodd" clip-rule="evenodd" d="M0 65.279V0H65L0 65.279ZM1807.96 0H113.036L0.5 112.536V1038.45H186.445L298.981 925.915H1622.02L1734.55 1038.45H1920.5V112.536L1807.96 0ZM1907.09 1025.04H1740.52L1627.98 912.5H293.019L180.483 1025.04H13.9149L13.9149 118.126L118.626 13.4149H1802.37L1907.09 118.126V1025.04ZM157.392 42.7566H156.878L156.514 43.1192L42.1224 157.097L41.7566 157.461V157.977V385.103H44.2434V158.494L157.906 45.2434H643.871L672.519 73.8916L672.884 74.2558H673.399H1246.6H1247.12L1247.48 73.8916L1276.13 45.2434H1762.51L1875.76 158.492V385.103H1878.24V157.977V157.462L1877.88 157.098L1763.9 43.1208L1763.54 42.7566H1763.02H1275.61H1275.1L1274.73 43.1208L1246.09 71.769H673.914L645.265 43.1208L644.901 42.7566H644.386H157.392ZM1920 0V65.279L1855 0H1920Z" fill="url(#paint0_linear_16_3302)"/>
<defs>
<linearGradient id="paint0_linear_16_3302" x1="3208.77" y1="1948.9" x2="1116.64" y2="2451.23" gradientUnits="userSpaceOnUse">
<stop stop-color="#7C38B2"/>
<stop offset="1" stop-color="#69D9FE"/>
</linearGradient>
</defs>
</svg>
